<svg width="512" height="512" viewBox="0 0 512 512" fill="none" xmlns="http://www.w3.org/2000/svg">
  <title>Netior taeguk knot draft</title>
  <desc>Continuous knot-like dual path with a central Netior node, emphasizing co-evolution instead of static balance.</desc>
  <circle cx="256" cy="256" r="176" stroke="#0F172A" stroke-width="18" />
  <g stroke-linecap="round" stroke-linejoin="round">
    <path d="M180 164C180 118 238 100 280 132C322 164 322 224 256 256C190 288 190 348 232 380C274 412 332 394 332 348" stroke="#F25F5C" stroke-width="52" />
    <path d="M332 164C332 118 274 100 232 132C190 164 190 224 256 256C322 288 322 348 280 380C238 412 180 394 180 348" stroke="#2563EB" stroke-width="52" />
  </g>
  <g fill="#0F172A">
    <circle cx="180" cy="164" r="22" />
    <circle cx="332" cy="164" r="22" />
    <circle cx="180" cy="348" r="22" />
    <circle cx="332" cy="348" r="22" />
    <circle cx="256" cy="256" r="40" />
  </g>
  <g fill="#F8FAFC">
    <circle cx="180" cy="164" r="9" />
    <circle cx="332" cy="164" r="9" />
    <circle cx="180" cy="348" r="9" />
    <circle cx="332" cy="348" r="9" />
    <circle cx="256" cy="256" r="14" />
  </g>
</svg>
