<svg width="512" height="512" viewBox="0 0 512 512" fill="none" xmlns="http://www.w3.org/2000/svg">
  <title>Netior orbit star icon draft</title>
  <desc>A bolder star mark with a subtle orbital accent for Netior.</desc>
  <defs>
    <linearGradient id="orbit-bg" x1="84" y1="84" x2="436" y2="432" gradientUnits="userSpaceOnUse">
      <stop offset="0" stop-color="#08131F" />
      <stop offset="1" stop-color="#10203A" />
    </linearGradient>
    <radialGradient id="orbit-core" cx="0" cy="0" r="1" gradientUnits="userSpaceOnUse" gradientTransform="translate(256 256) rotate(90) scale(178)">
      <stop offset="0" stop-color="#3DD5C3" stop-opacity="0.28" />
      <stop offset="1" stop-color="#3DD5C3" stop-opacity="0" />
    </radialGradient>
    <linearGradient id="orbit-star" x1="170" y1="122" x2="356" y2="390" gradientUnits="userSpaceOnUse">
      <stop offset="0" stop-color="#FFFFFF" />
      <stop offset="1" stop-color="#DFFAF6" />
    </linearGradient>
  </defs>
  <rect x="20" y="20" width="472" height="472" rx="124" fill="url(#orbit-bg)" />
  <circle cx="256" cy="256" r="178" fill="url(#orbit-core)" />
  <path fill-rule="evenodd" clip-rule="evenodd" d="M256 88L308 204L424 256L308 308L256 424L204 308L88 256L204 204Z M256 168L286 226L344 256L286 286L256 344L226 286L168 256L226 226Z" fill="url(#orbit-star)" />
  <path d="M150 182C180 136 238 112 296 118C350 124 398 156 424 206" stroke="#7BF5E3" stroke-width="16" stroke-linecap="round" opacity="0.82" />
  <circle cx="426" cy="206" r="13" fill="#A7FFF2" />
  <circle cx="256" cy="256" r="32" fill="#14B8A6" />
  <circle cx="256" cy="256" r="11" fill="#F8FAFC" />
</svg>
