<svg width="512" height="512" viewBox="0 0 512 512" fill="none" xmlns="http://www.w3.org/2000/svg">
  <title>Netior taeguk air open</title>
  <desc>More open taeguk commas with the widest breathing room and one central Netior dot.</desc>
  <path d="M168 206C188 166 224 144 264 148C300 152 330 176 338 208C346 238 334 266 308 278C282 290 254 286 240 268C228 252 230 236 244 224C256 214 262 204 260 188C224 186 192 192 168 206Z" fill="#D85A64" />
  <path d="M344 306C324 346 288 368 248 364C212 360 182 336 174 304C166 274 178 246 204 234C230 222 258 226 272 244C284 260 282 276 268 288C256 298 250 308 252 324C288 326 320 320 344 306Z" fill="#3A6FB0" />
  <circle cx="256" cy="256" r="11" fill="#0F172A" />
</svg>
