<svg width="512" height="512" viewBox="0 0 512 512" fill="none" xmlns="http://www.w3.org/2000/svg">
  <title>Netior taeguk air tight</title>
  <desc>Tighter, denser taeguk commas with more whitespace around the symbol.</desc>
  <path d="M188 210C204 178 234 160 268 164C302 168 330 190 336 220C342 248 330 272 306 284C282 296 258 290 246 272C236 258 238 242 250 232C260 224 264 214 262 198C232 196 206 200 188 210Z" fill="#D85A64" />
  <path d="M324 302C308 334 278 352 244 348C210 344 182 322 176 292C170 264 182 240 206 228C230 216 254 222 266 240C276 254 274 270 262 280C252 288 248 298 250 314C280 316 306 312 324 302Z" fill="#3A6FB0" />
  <circle cx="256" cy="256" r="12" fill="#0F172A" />
</svg>
