<svg width="512" height="512" viewBox="0 0 512 512" fill="none" xmlns="http://www.w3.org/2000/svg">
  <title>Netior constellation star icon draft</title>
  <desc>A network-like star constellation with multiple concept nodes for Netior.</desc>
  <defs>
    <linearGradient id="constellation-bg" x1="92" y1="68" x2="430" y2="448" gradientUnits="userSpaceOnUse">
      <stop offset="0" stop-color="#09131F" />
      <stop offset="1" stop-color="#12223A" />
    </linearGradient>
    <radialGradient id="constellation-glow" cx="0" cy="0" r="1" gradientUnits="userSpaceOnUse" gradientTransform="translate(256 254) rotate(90) scale(198)">
      <stop offset="0" stop-color="#14B8A6" stop-opacity="0.24" />
      <stop offset="1" stop-color="#14B8A6" stop-opacity="0" />
    </radialGradient>
  </defs>
  <rect x="20" y="20" width="472" height="472" rx="124" fill="url(#constellation-bg)" />
  <circle cx="256" cy="254" r="198" fill="url(#constellation-glow)" />
  <g stroke="#E9FFFC" stroke-width="24" stroke-linecap="round" stroke-linejoin="round">
    <path d="M256 110L330 182L402 256L330 330L256 402L182 330L110 256L182 182L256 110Z" opacity="0.94" />
    <path d="M256 110L256 402" />
    <path d="M110 256L402 256" />
    <path d="M182 182L330 330" opacity="0.72" />
    <path d="M330 182L182 330" opacity="0.72" />
  </g>
  <g fill="#F8FAFC">
    <circle cx="256" cy="110" r="24" />
    <circle cx="330" cy="182" r="22" />
    <circle cx="402" cy="256" r="24" />
    <circle cx="330" cy="330" r="22" />
    <circle cx="256" cy="402" r="24" />
    <circle cx="182" cy="330" r="22" />
    <circle cx="110" cy="256" r="24" />
    <circle cx="182" cy="182" r="22" />
    <circle cx="256" cy="256" r="44" />
  </g>
  <circle cx="256" cy="256" r="18" fill="#14B8A6" />
</svg>
