<svg width="512" height="512" viewBox="0 0 512 512" fill="none" xmlns="http://www.w3.org/2000/svg">
  <title>Netior taeguk air tilt</title>
  <desc>Compact taeguk direction with more whitespace and a slight tilt for motion.</desc>
  <g transform="rotate(-20 256 256)">
    <path d="M178 204C196 162 232 140 272 146C310 152 340 178 348 212C356 244 344 272 316 286C288 300 258 294 242 274C230 258 232 238 246 226C258 216 264 204 262 186C228 184 198 190 178 204Z" fill="#D85A64" />
    <path d="M334 308C316 350 280 372 240 366C202 360 172 334 164 300C156 268 168 240 196 226C224 212 254 218 270 238C282 254 280 274 266 286C254 296 248 308 250 326C284 328 314 322 334 308Z" fill="#3A6FB0" />
  </g>
  <circle cx="256" cy="256" r="12" fill="#0F172A" />
</svg>
