<svg width="512" height="512" viewBox="0 0 512 512" fill="none" xmlns="http://www.w3.org/2000/svg">
  <title>Netior horizontal taper balance</title>
  <desc>Horizontal taeguk-helix concept with balanced continuous ribbon taper and a cleaner logo silhouette.</desc>
  <path d="M88 228C126 196 168 192 204 210C228 222 244 236 256 256C280 296 326 318 372 310C404 304 430 286 446 260C442 286 424 312 394 326C344 350 286 338 246 294C226 272 212 248 188 238C154 224 118 228 88 254C82 244 82 236 88 228Z" fill="#D85A64"/>
  <path d="M88 284C126 316 168 320 204 302C228 290 244 276 256 256C280 216 326 194 372 202C404 208 430 226 446 252C442 226 424 200 394 186C344 162 286 174 246 218C226 240 212 264 188 274C154 288 118 284 88 258C82 268 82 276 88 284Z" fill="#3A6FB0"/>
  <circle cx="256" cy="256" r="12" fill="#0F172A"/>
</svg>
