<svg width="512" height="512" viewBox="0 0 512 512" fill="none" xmlns="http://www.w3.org/2000/svg">
  <title>Netior star axis icon draft</title>
  <desc>A geometric four-point star with a strong center node for Netior.</desc>
  <defs>
    <linearGradient id="axis-bg" x1="92" y1="72" x2="430" y2="448" gradientUnits="userSpaceOnUse">
      <stop offset="0" stop-color="#07111C" />
      <stop offset="1" stop-color="#0E1C30" />
    </linearGradient>
    <radialGradient id="axis-glow" cx="0" cy="0" r="1" gradientUnits="userSpaceOnUse" gradientTransform="translate(256 256) rotate(90) scale(190)">
      <stop offset="0" stop-color="#14B8A6" stop-opacity="0.30" />
      <stop offset="1" stop-color="#14B8A6" stop-opacity="0" />
    </radialGradient>
  </defs>
  <rect x="20" y="20" width="472" height="472" rx="124" fill="url(#axis-bg)" />
  <circle cx="256" cy="256" r="190" fill="url(#axis-glow)" />
  <path d="M256 102L304 208L410 256L304 304L256 410L208 304L102 256L208 208Z" stroke="#F8FAFC" stroke-width="30" stroke-linecap="round" stroke-linejoin="round" />
  <path d="M256 154V358M154 256H358" stroke="#73E6D6" stroke-width="18" stroke-linecap="round" opacity="0.72" />
  <g fill="#F8FAFC">
    <circle cx="256" cy="102" r="28" />
    <circle cx="410" cy="256" r="28" />
    <circle cx="256" cy="410" r="28" />
    <circle cx="102" cy="256" r="28" />
    <circle cx="256" cy="256" r="46" />
  </g>
  <g fill="#A7FFF2" opacity="0.92">
    <circle cx="208" cy="208" r="12" />
    <circle cx="304" cy="208" r="12" />
    <circle cx="304" cy="304" r="12" />
    <circle cx="208" cy="304" r="12" />
  </g>
  <circle cx="256" cy="256" r="20" fill="#14B8A6" />
</svg>
